Doctor Zhivago*1965*[BluRay][720p][ENG, POL]

General information:
Country: USA, Italy 
Release: 22 December 1965
Genre: Drama, Romance, War 
Director: David Lean
Screenplay: Robert Bolt, Boris Pasternak (novel)
Original Music: Maurice Jarre 
Cinematography by: Nicolas Roeg, Freddie Young 
Duration: 3h 15mn
Language: English, Polish
Subtitles: Polish
Rating: 7.5/10 - 2432 votes 

Cast:
Omar Sharif  ...  Yuri  
Julie Christie  ...  Lara  
Geraldine Chaplin  ...  Tonya  
Rod Steiger  ...  Komarovsky  
Alec Guinness  ...  Yevgraf  
Tom Courtenay  ...  Pasha  
Siobhan McKenna  ...  Anna  
Ralph Richardson  ...  Alexander  
Rita Tushingham  ...  The Girl  
Jeffrey Rockland  ...  Sasha  
Tarek Sharif  ...  Yuri at 8 years old  
Bernard Kay  ...  The Bolshevik  
Klaus Kinski  ...  Kostoyed  
Gérard Tichy  ...  Liberius (as Gerard Tichy)  
Noel Willman  ...  Razin  

Plot:
Life of a Russian doctor/poet who, although married, falls for a political activist's wife and experiences hardships during the Bolshevik Revolution.

Specifications:
General
Format                           : Matroska
Overall bit rate                 : 7 353 Kbps

Video
Format                           : AVC
Format/Info                      : Advanced Video Codec
Format profile                   : High@L3.1
Format settings, CABAC           : Yes
Format settings, ReFrames        : 4 frames
Muxing mode                      : Container profile=Unknown@3.1
Codec ID                         : V_MPEG4/ISO/AVC
Bit rate                         : 5 505 Kbps
Width                            : 1 280 pixels
Height                           : 528 pixels
Display aspect ratio             : 2.40:1
Frame rate                       : 23.976 fps

Audio 1
Format                           : DTS
Format/Info                      : Digital Theater Systems
Codec ID                         : A_DTS
Bit rate mode                    : Constant
Bit rate                         : 1 510 Kbps
Channel(s)                       : 6 channels
Channel positions                : Front: L C R, Side: L R, LFE
Sampling rate                    : 48.0 KHz
Bit depth                        : 24 bits
Stream size                      : 2.06 GiB (21%)
Title                            : English_A

Audio 2
Format                           : AC-3
Format/Info                      : Audio Coding 3
Format profile                   : Dolby Digital
Mode extension                   : CM (complete main)
Codec ID                         : A_AC3
Bit rate mode                    : Constant
Bit rate                         : 192 Kbps
Channel(s)                       : 2 channels
Channel positions                : Front: L R
Sampling rate                    : 48.0 KHz
Stream size                      : 268 MiB (3%)
Title                            : Polish_A

Text
Format                           : UTF-8
Codec ID                         : S_TEXT/UTF8
Codec ID/Info                    : UTF-8 Plain Text
Language                         : Polish
